<svg xmlns="http://www.w3.org/2000/svg" version="1.1" xmlns:xlink="http://www.w3.org/1999/xlink" xmlns:svgjs="http://svgjs.dev/svgjs" width="1000" height="623" viewBox="0 0 1000 623"><g transform="matrix(1,0,0,1,-0.6060606060606233,0.2522267206477409)"><svg viewBox="0 0 396 247" data-background-color="#ffffff" preserveAspectRatio="xMidYMid meet" height="623" width="1000" xmlns="http://www.w3.org/2000/svg" xmlns:xlink="http://www.w3.org/1999/xlink"><g id="tight-bounds" transform="matrix(1,0,0,1,0.2400000000000091,-0.09999999999999432)"><svg viewBox="0 0 395.52 247.2" height="247.2" width="395.52"><g><svg></svg></g><g><svg viewBox="0 0 395.52 247.2" height="247.2" width="395.52"><mask id="5a973635-2af6-4f77-a033-6d1f2693a370"><rect width="640" height="400" fill="white"></rect><g transform="matrix(1,0,0,1,144.6874014155713,65.92)"><svg viewBox="0 0 106.14519716885741 115.35999999999999" height="115.35999999999999" width="106.14519716885741"><g><svg viewBox="0 0 106.14519716885741 115.35999999999999" height="115.35999999999999" width="106.14519716885741"><g><svg viewBox="0 0 106.14519716885741 115.35999999999999" height="115.35999999999999" width="106.14519716885741"><g><svg viewBox="0 0 106.14519716885741 115.35999999999999" height="115.35999999999999" width="106.14519716885741"><g id="SvgjsG7644"><svg viewBox="0 0 106.14519716885741 115.35999999999999" height="115.35999999999999" width="106.14519716885741" id="SvgjsSvg7643"><g><svg viewBox="0 0 106.14519716885741 115.35999999999999" height="115.35999999999999" width="106.14519716885741"><g transform="matrix(1,0,0,1,0,0)"><svg width="106.14519716885741" viewBox="-1.75 -40.5 46.5 50.45000076293945" height="115.35999999999999" data-palette-color="#0074d9"><path d="M15.1-4.5L14.6-4.5 14.6-31.5 15.1-31.5 15.1-18.25 34.3-18.25 34.3-31.5 34.8-31.5 34.8-4.5 34.3-4.5 34.3-17.75 15.1-17.75 15.1-4.5ZM11 0L18.75 0Q19.7 0 20.13-0.43 20.55-0.85 20.55-1.8L20.55-1.8 20.55-12.9 28.9-12.9 28.9-1.8Q28.9-0.85 29.33-0.43 29.75 0 30.7 0L30.7 0 38.45 0Q39.4 0 39.83-0.43 40.25-0.85 40.25-1.8L40.25-1.8 40.25-34.2Q40.25-35.15 39.83-35.58 39.4-36 38.45-36L38.45-36 30.7-36Q29.75-36 29.33-35.58 28.9-35.15 28.9-34.2L28.9-34.2 28.9-23.35 20.55-23.35 20.55-34.2Q20.55-35.15 20.13-35.58 19.7-36 18.75-36L18.75-36 11-36Q10.05-36 9.63-35.58 9.2-35.15 9.2-34.2L9.2-34.2 9.2-1.8Q9.2-0.85 9.63-0.43 10.05 0 11 0L11 0ZM20.35 0.05L20.35 0.05 13.85 5.45Q13.65 5.65 13.23 5.8 12.8 5.95 12.3 5.95L12.3 5.95 4.55 5.95Q3.35 5.95 2.8 5.4 2.25 4.85 2.25 3.65L2.25 3.65 2.25-28.75Q2.25-29.4 2.43-29.85 2.6-30.3 2.95-30.6L2.95-30.6 9.4-36.05Q9.65-36.25 10.08-36.38 10.5-36.5 11-36.5L11-36.5 18.75-36.5Q19.95-36.5 20.5-35.95 21.05-35.4 21.05-34.2L21.05-34.2 21.05-23.85 21.95-23.85 21.95-28.75Q21.95-29.4 22.13-29.85 22.3-30.3 22.65-30.6L22.65-30.6 29.1-36.05Q29.35-36.25 29.78-36.38 30.2-36.5 30.7-36.5L30.7-36.5 38.45-36.5Q39.65-36.5 40.2-35.95 40.75-35.4 40.75-34.2L40.75-34.2 40.75-1.8Q40.75-1.15 40.58-0.7 40.4-0.25 40.05 0.05L40.05 0.05 33.55 5.45Q33.35 5.65 32.93 5.8 32.5 5.95 32 5.95L32 5.95 24.25 5.95Q23.05 5.95 22.5 5.4 21.95 4.85 21.95 3.65L21.95 3.65 21.95-6.95 21.05-6.95 21.05-1.8Q21.05-1.15 20.88-0.7 20.7-0.25 20.35 0.05Z" opacity="1" transform="matrix(1,0,0,1,0,0)" fill="black" class="wordmark-text-0" id="SvgjsPath7642" stroke-width="7" stroke="black" stroke-linejoin="round"></path></svg></g></svg></g></svg></g></svg></g><g></g></svg></g></svg></g></svg></g></mask><g transform="matrix(1,0,0,1,144.6874014155713,65.92)"><svg viewBox="0 0 106.14519716885741 115.35999999999999" height="115.35999999999999" width="106.14519716885741"><g><svg viewBox="0 0 106.14519716885741 115.35999999999999" height="115.35999999999999" width="106.14519716885741"><g><svg viewBox="0 0 106.14519716885741 115.35999999999999" height="115.35999999999999" width="106.14519716885741"><g><svg viewBox="0 0 106.14519716885741 115.35999999999999" height="115.35999999999999" width="106.14519716885741"><g id="textblocktransform"><svg viewBox="0 0 106.14519716885741 115.35999999999999" height="115.35999999999999" width="106.14519716885741" id="textblock"><g><svg viewBox="0 0 106.14519716885741 115.35999999999999" height="115.35999999999999" width="106.14519716885741"><g transform="matrix(1,0,0,1,0,0)"><svg width="106.14519716885741" viewBox="-1.75 -40.5 46.5 50.45000076293945" height="115.35999999999999" data-palette-color="#0074d9"><path d="M15.1-4.5L14.6-4.5 14.6-31.5 15.1-31.5 15.1-18.25 34.3-18.25 34.3-31.5 34.8-31.5 34.8-4.5 34.3-4.5 34.3-17.75 15.1-17.75 15.1-4.5ZM11 0L18.75 0Q19.7 0 20.13-0.43 20.55-0.85 20.55-1.8L20.55-1.8 20.55-12.9 28.9-12.9 28.9-1.8Q28.9-0.85 29.33-0.43 29.75 0 30.7 0L30.7 0 38.45 0Q39.4 0 39.83-0.43 40.25-0.85 40.25-1.8L40.25-1.8 40.25-34.2Q40.25-35.15 39.83-35.58 39.4-36 38.45-36L38.45-36 30.7-36Q29.75-36 29.33-35.58 28.9-35.15 28.9-34.2L28.9-34.2 28.9-23.35 20.55-23.35 20.55-34.2Q20.55-35.15 20.13-35.58 19.7-36 18.75-36L18.75-36 11-36Q10.05-36 9.63-35.58 9.2-35.15 9.2-34.2L9.2-34.2 9.2-1.8Q9.2-0.85 9.63-0.43 10.05 0 11 0L11 0ZM20.35 0.05L20.35 0.05 13.85 5.45Q13.65 5.65 13.23 5.8 12.8 5.95 12.3 5.95L12.3 5.95 4.55 5.95Q3.35 5.95 2.8 5.4 2.25 4.85 2.25 3.65L2.25 3.65 2.25-28.75Q2.25-29.4 2.43-29.85 2.6-30.3 2.95-30.6L2.95-30.6 9.4-36.05Q9.65-36.25 10.08-36.38 10.5-36.5 11-36.5L11-36.5 18.75-36.5Q19.95-36.5 20.5-35.95 21.05-35.4 21.05-34.2L21.05-34.2 21.05-23.85 21.95-23.85 21.95-28.75Q21.95-29.4 22.13-29.85 22.3-30.3 22.65-30.6L22.65-30.6 29.1-36.05Q29.35-36.25 29.78-36.38 30.2-36.5 30.7-36.5L30.7-36.5 38.45-36.5Q39.65-36.5 40.2-35.95 40.75-35.4 40.75-34.2L40.75-34.2 40.75-1.8Q40.75-1.15 40.58-0.7 40.4-0.25 40.05 0.05L40.05 0.05 33.55 5.45Q33.35 5.65 32.93 5.8 32.5 5.95 32 5.95L32 5.95 24.25 5.95Q23.05 5.95 22.5 5.4 21.95 4.85 21.95 3.65L21.95 3.65 21.95-6.95 21.05-6.95 21.05-1.8Q21.05-1.15 20.88-0.7 20.7-0.25 20.35 0.05Z" opacity="1" transform="matrix(1,0,0,1,0,0)" fill="#0074d9" class="wordmark-text-0" data-fill-palette-color="primary" id="text-0"></path></svg></g></svg></g></svg></g></svg></g><g></g></svg></g></svg></g></svg></g><g mask="url(#5a973635-2af6-4f77-a033-6d1f2693a370)"><g transform="matrix(1.915625, 0, 0, 1.915625, 75.16, 1)"><svg xmlns="http://www.w3.org/2000/svg" data-name="Layer 1" viewBox="0 0 128 128" x="0" y="0" height="128" width="128" class="icon-none" data-fill-palette-color="accent" id="none"></svg></g></g></svg></g><defs></defs><mask id="bf22a8ae-c3bd-4870-803d-103da40c6bfa"><g id="SvgjsG7654"><svg viewBox="0 0 395.52 247.2" height="247.2" width="395.52"><g><svg></svg></g><g><svg viewBox="0 0 395.52 247.2" height="247.2" width="395.52"><mask id="SvgjsMask7653"><g transform="matrix(1,0,0,1,144.6874014155713,65.92)"><svg viewBox="0 0 106.14519716885741 115.35999999999999" height="115.35999999999999" width="106.14519716885741"><g><svg viewBox="0 0 106.14519716885741 115.35999999999999" height="115.35999999999999" width="106.14519716885741"><g><svg viewBox="0 0 106.14519716885741 115.35999999999999" height="115.35999999999999" width="106.14519716885741"><g><svg viewBox="0 0 106.14519716885741 115.35999999999999" height="115.35999999999999" width="106.14519716885741"><g id="SvgjsG7652"><svg viewBox="0 0 106.14519716885741 115.35999999999999" height="115.35999999999999" width="106.14519716885741" id="SvgjsSvg7651"><g><svg viewBox="0 0 106.14519716885741 115.35999999999999" height="115.35999999999999" width="106.14519716885741"><g transform="matrix(1,0,0,1,0,0)"><svg width="106.14519716885741" viewBox="-1.75 -40.5 46.5 50.45000076293945" height="115.35999999999999" data-palette-color="#0074d9"></svg></g></svg></g></svg></g></svg></g><g></g></svg></g></svg></g></svg></g></mask><g transform="matrix(1,0,0,1,144.6874014155713,65.92)"><svg viewBox="0 0 106.14519716885741 115.35999999999999" height="115.35999999999999" width="106.14519716885741"><g><svg viewBox="0 0 106.14519716885741 115.35999999999999" height="115.35999999999999" width="106.14519716885741"><g><svg viewBox="0 0 106.14519716885741 115.35999999999999" height="115.35999999999999" width="106.14519716885741"><g><svg viewBox="0 0 106.14519716885741 115.35999999999999" height="115.35999999999999" width="106.14519716885741"><g id="SvgjsG7649"><svg viewBox="0 0 106.14519716885741 115.35999999999999" height="115.35999999999999" width="106.14519716885741" id="SvgjsSvg7648"><g><svg viewBox="0 0 106.14519716885741 115.35999999999999" height="115.35999999999999" width="106.14519716885741"><g transform="matrix(1,0,0,1,0,0)"><svg width="106.14519716885741" viewBox="-1.75 -40.5 46.5 50.45000076293945" height="115.35999999999999" data-palette-color="#0074d9"></svg></g></svg></g></svg></g></svg></g><g></g></svg></g></svg></g></svg></g><g mask="url(#5a973635-2af6-4f77-a033-6d1f2693a370)"><g transform="matrix(1.915625, 0, 0, 1.915625, 75.16, 1)"><svg xmlns="http://www.w3.org/2000/svg" data-name="Layer 1" viewBox="0 0 128 128" x="0" y="0" height="128" width="128" class="icon-none" data-fill-palette-color="accent" id="SvgjsSvg7646"><path d="M18.136 82.998c-4.542 11.393-4.679 20.969 0.609 26.257 2.711 2.711 6.544 3.998 11.174 3.998a41.839 41.839 0 0 0 15.084-3.387C49.847 121.133 56.521 128 64 128s14.153-6.867 18.997-18.135a41.841 41.841 0 0 0 15.084 3.387c4.628 0 8.464-1.287 11.174-3.997 5.288-5.288 5.151-14.864 0.609-26.257C121.132 78.154 128 71.479 128 64s-6.868-14.154-18.136-18.998c4.542-11.393 4.679-20.969-0.609-26.257C103.966 13.457 94.39 13.593 82.998 18.135 78.154 6.868 71.479 0 64 0 56.521 0 49.846 6.868 45.002 18.136c-11.392-4.542-20.968-4.679-26.257 0.609-5.288 5.288-5.151 14.864-0.609 26.257C6.868 49.846 0 56.521 0 64S6.868 78.154 18.136 82.998Zm3.437 23.429c-4.121-4.121-3.695-12.19 0.274-21.963a100.747 100.747 0 0 0 17.21 4.479A100.75 100.75 0 0 0 43.535 106.153C33.763 110.121 25.696 110.546 21.573 106.427Zm15.493-38.063Q35.315 66.18 33.71 64q1.604-2.179 3.356-4.364C37.027 61.078 37 62.53 37 64S37.027 66.922 37.066 68.364Zm-5.816-7.814a98.957 98.957 0 0 1-7.776-13.336A98.959 98.959 0 0 1 38.402 43.282q-0.656 4.687-1.012 9.696Q34.103 56.764 31.25 60.55ZM37.39 75.022q0.352 5.001 1.012 9.696a98.959 98.959 0 0 1-14.928-3.932 98.957 98.957 0 0 1 7.776-13.336Q34.1 71.228 37.39 75.022ZM47.736 47.736q3.382-3.382 6.856-6.436Q59.203 41.007 64 41q4.789 0 9.408 0.3 3.463 3.051 6.856 6.436 3.384 3.384 6.437 6.861Q86.993 59.206 87 64q0 4.786-0.299 9.403-3.052 3.465-6.437 6.861-3.384 3.384-6.861 6.437Q68.794 86.993 64 87q-4.786 0-9.403-0.299-3.465-3.052-6.861-6.437-3.384-3.384-6.437-6.861Q41.007 68.794 41 64q0-4.786 0.299-9.403Q44.352 51.131 47.736 47.736Zm-5.867 0.305q0.306-2.783 0.713-5.459 2.675-0.406 5.459-0.713c-1.048 0.992-2.093 1.999-3.133 3.039S42.862 46.993 41.869 48.041ZM59.625 37.067q2.189-1.756 4.375-3.361 2.184 1.608 4.375 3.361C66.929 37.027 65.474 37 64 37S61.071 37.027 59.625 37.067ZM79.959 41.869q2.783 0.306 5.459 0.713 0.406 2.675 0.713 5.459c-0.992-1.048-2-2.093-3.039-3.133S81.007 42.862 79.959 41.869Zm6.172 38.09q-0.306 2.783-0.713 5.459-2.672 0.406-5.453 0.712 1.569-1.486 3.127-3.038C84.131 82.052 85.138 81.007 86.131 79.959ZM68.364 90.934q-2.184 1.752-4.364 3.357-2.179-1.604-4.365-3.357C61.078 90.973 62.53 91 64 91S66.922 90.973 68.364 90.934ZM48.035 86.13q-2.78-0.306-5.453-0.712-0.406-2.675-0.713-5.459c0.992 1.048 2 2.093 3.039 3.133Q46.465 84.648 48.035 86.13Zm-4.753 3.468q4.685 0.655 9.691 1.012 3.786 3.288 7.573 6.143a98.939 98.939 0 0 1-13.332 7.773A98.957 98.957 0 0 1 43.282 89.598ZM64 124c-5.827 0-11.23-6.004-15.334-15.718a100.87 100.87 0 0 0 15.334-9.011 100.857 100.857 0 0 0 15.335 9.01C75.231 117.996 69.827 124 64 124Zm16.786-19.473A98.95 98.95 0 0 1 67.454 96.753q3.778-2.851 7.574-6.143 4.998-0.352 9.69-1.012A98.956 98.956 0 0 1 80.786 104.527Zm25.641 1.9c-4.121 4.122-12.19 3.696-21.963-0.273a100.752 100.752 0 0 0 4.479-17.211 100.747 100.747 0 0 0 17.21-4.479C110.122 94.237 110.547 102.306 106.427 106.427ZM90.934 59.636Q92.685 61.82 94.29 64q-1.604 2.179-3.356 4.364C90.973 66.922 91 65.47 91 64S90.973 61.078 90.934 59.636ZM90.61 52.978q-0.352-5.001-1.012-9.696a98.959 98.959 0 0 1 14.928 3.932 98.957 98.957 0 0 1-7.776 13.336Q93.9 56.772 90.61 52.978Zm0 22.044q3.287-3.785 6.14-7.572a98.957 98.957 0 0 1 7.776 13.336A98.959 98.959 0 0 1 89.598 84.718Q90.254 80.031 90.61 75.022ZM124 64c0 5.828-6.006 11.232-15.723 15.336A100.743 100.743 0 0 0 99.274 64 100.743 100.743 0 0 0 108.277 48.664C117.994 52.768 124 58.172 124 64ZM98.044 18.67c3.534 0 6.41 0.932 8.383 2.903 4.121 4.121 3.695 12.19-0.273 21.963a100.747 100.747 0 0 0-17.211-4.479 100.75 100.75 0 0 0-4.479-17.211A37.466 37.466 0 0 1 98.044 18.67ZM84.718 38.402q-4.687-0.656-9.696-1.012-3.784-3.286-7.569-6.138a99.022 99.022 0 0 1 13.333-7.779A98.949 98.949 0 0 1 84.718 38.402ZM64 4c5.828 0 11.232 6.006 15.336 15.722a100.746 100.746 0 0 0-15.337 9.004A100.755 100.755 0 0 0 48.664 19.723C52.768 10.006 58.172 4 64 4ZM47.214 23.474a99.029 99.029 0 0 1 13.333 7.778q-3.777 2.85-7.569 6.138-5.001 0.352-9.696 1.012A98.954 98.954 0 0 1 47.214 23.474ZM21.573 21.573c1.973-1.973 4.848-2.903 8.383-2.903a37.465 37.465 0 0 1 13.58 3.176 100.749 100.749 0 0 0-4.479 17.211A100.747 100.747 0 0 0 21.846 43.536C17.878 33.763 17.453 25.694 21.573 21.573ZM19.723 48.664A100.743 100.743 0 0 0 28.726 64 100.743 100.743 0 0 0 19.723 79.336C10.006 75.232 4 69.828 4 64S10.006 52.768 19.723 48.664Z" fill="white"></path><path d="M64 81A17 17 0 1 0 47 64 17.019 17.019 0 0 0 64 81Zm0-30A13 13 0 1 1 51 64 13.015 13.015 0 0 1 64 51Z" fill="white"></path><path d="M64 72a8 8 0 1 0-8-8A8.009 8.009 0 0 0 64 72Zm0-12a4 4 0 1 1-4 4A4.004 4.004 0 0 1 64 60Z" fill="white"></path></svg></g></g></svg></g><defs></defs></svg></g></mask><linearGradient x1="0" x2="1" y1="0.578" y2="0.595" id="4333f81d-917d-4bb0-a5c3-3ead615d298e"><stop stop-color="#6ee2f5" offset="0"></stop><stop stop-color="#6454f0" offset="1"></stop></linearGradient><rect width="395.5199890136719" height="247.1999969482422" fill="url(#4333f81d-917d-4bb0-a5c3-3ead615d298e)" mask="url(#bf22a8ae-c3bd-4870-803d-103da40c6bfa)" data-fill-palette-color="accent"></rect></svg><rect width="395.52" height="247.2" fill="none" stroke="none" visibility="hidden"></rect></g></svg></g></svg>